<?xml version="1.0" encoding="UTF-8"?>
<svg xmlns="http://www.w3.org/2000/svg" xmlns:xlink="http://www.w3.org/1999/xlink"
     width="1000" height="166.66666666666666" viewBox="0 0 1000 166.66666666666666" displayInline="False">
<defs>
</defs>
<rect x="140.0" y="81.25925925925925" width="497.7777777777778" height="4.148148148148148" fill="#000000" stroke="black" stroke-width="0.0" />
<path d="M140.0,77.1111111111111 L252.0,77.1111111111111 L264.44444444444446,83.33333333333333 L252.0,89.55555555555556 L140.0,89.55555555555556 Z" fill="#007a3d" stroke="black" stroke-width="2.074074074074074" />
<path d="M538.2222222222222,77.1111111111111 L550.6666666666667,77.1111111111111 L563.1111111111111,83.33333333333333 L550.6666666666667,89.55555555555556 L538.2222222222222,89.55555555555556 Z" fill="#007a3d" stroke="black" stroke-width="2.074074074074074" />
<path d="M612.8888888888889,77.1111111111111 L575.5555555555555,77.1111111111111 L563.1111111111111,83.33333333333333 L575.5555555555555,89.55555555555556 L612.8888888888889,89.55555555555556 Z" fill="#9bffcd" stroke="black" stroke-width="2.074074074074074" />
<path d="M388.8888888888889,83.33333333333333 L376.44444444444446,108.22222222222221 L395.1111111111111,108.22222222222221 L395.1111111111111,58.44444444444444 L376.44444444444446,58.44444444444444 Z" fill="#444444" stroke="black" stroke-width="2.074074074074074" />
<path d="M451.11111111111114,83.33333333333333 L463.55555555555554,58.44444444444444 L444.8888888888889,58.44444444444444 L444.8888888888889,108.22222222222221 L463.55555555555554,108.22222222222221 Z" fill="#dddddd" stroke="black" stroke-width="2.074074074074074" />
<circle cx="140.0" cy="83.33333333333333" r="12.444444444444445" fill="#ffff00" stroke="black" stroke-width="2.074074074074074" />
<circle cx="289.33333333333337" cy="83.33333333333333" r="12.444444444444445" fill="#fcfcf2" stroke="black" stroke-width="2.074074074074074" />
<circle cx="513.3333333333333" cy="83.33333333333333" r="12.444444444444445" fill="#fcfcf2" stroke="black" stroke-width="2.074074074074074" />
<path d="M326.66666666666663,83.33333333333333 L314.22222222222223,48.11555555555555 L339.1111111111111,48.11555555555555 Z" fill="red" stroke="black" stroke-width="2.074074074074074" />
<path d="M351.55555555555554,83.33333333333333 L339.1111111111111,48.11555555555555 L364.0,48.11555555555555 Z" fill="red" stroke="black" stroke-width="2.074074074074074" />
<path d="M376.44444444444446,83.33333333333333 L364.0,118.55111111111111 L388.8888888888889,118.55111111111111 Z" fill="red" stroke="black" stroke-width="2.074074074074074" />
<path d="M469.77777777777777,83.33333333333333 L457.3333333333333,48.11555555555555 L482.22222222222223,48.11555555555555 Z" fill="red" stroke="black" stroke-width="2.074074074074074" />
<path d="M482.22222222222223,83.33333333333333 L469.77777777777777,118.55111111111111 L494.6666666666667,118.55111111111111 Z" fill="red" stroke="black" stroke-width="2.074074074074074" />
<path d="M339.1111111111111,83.33333333333333 L314.22222222222223,83.33333333333333 L314.22222222222223,89.55555555555556 L314.22222222222223,95.77777777777777 L339.1111111111111,95.77777777777777 Z" fill="#007a3d" stroke="black" stroke-width="2.074074074074074" />
<path d="M364.0,70.88888888888889 L388.8888888888889,70.88888888888889 L388.8888888888889,77.1111111111111 L388.8888888888889,83.33333333333333 L364.0,83.33333333333333 Z" fill="#007a3d" stroke="black" stroke-width="2.074074074074074" />
<path d="M413.77777777777777,70.88888888888889 L438.6666666666667,70.88888888888889 L438.6666666666667,77.1111111111111 L438.6666666666667,83.33333333333333 L413.77777777777777,83.33333333333333 Z" fill="#9bffcd" stroke="black" stroke-width="2.074074074074074" />
<path d="M500.8888888888889,83.33333333333333 L488.44444444444446,83.33333333333333 L488.44444444444446,89.55555555555556 L488.44444444444446,95.77777777777777 L500.8888888888889,95.77777777777777 Z" fill="#007a3d" stroke="black" stroke-width="2.074074074074074" />
</svg>