<?xml version="1.0" encoding="utf-8" standalone="no"?>
<!DOCTYPE svg PUBLIC "-//W3C//DTD SVG 1.1//EN"
  "http://www.w3.org/Graphics/SVG/1.1/DTD/svg11.dtd">
<svg xmlns:xlink="http://www.w3.org/1999/xlink" width="720pt" height="158.4pt" viewBox="0 0 720 158.4" xmlns="http://www.w3.org/2000/svg" version="1.1">
 <metadata>
  <rdf:RDF xmlns:dc="http://purl.org/dc/elements/1.1/" xmlns:cc="http://creativecommons.org/ns#" xmlns:rdf="http://www.w3.org/1999/02/22-rdf-syntax-ns#">
   <cc:Work>
    <dc:type rdf:resource="http://purl.org/dc/dcmitype/StillImage"/>
    <dc:date>2025-06-04T19:20:27.560782</dc:date>
    <dc:format>image/svg+xml</dc:format>
    <dc:creator>
     <cc:Agent>
      <dc:title>Matplotlib v3.9.0, https://matplotlib.org/</dc:title>
     </cc:Agent>
    </dc:creator>
   </cc:Work>
  </rdf:RDF>
 </metadata>
 <defs>
  <style type="text/css">*{stroke-linejoin: round; stroke-linecap: butt}</style>
 </defs>
 <g id="figure_1">
  <g id="patch_1">
   <path d="M 0 158.4 
L 720 158.4 
L 720 0 
L 0 0 
z
" style="fill: #ffffff"/>
  </g>
  <g id="axes_1">
   <g id="line2d_1">
    <path d="M 10.8 112.834091 
L 709.2 112.834091 
" clip-path="url(#pa85078d605)" style="fill: none; stroke: #000000; stroke-width: 1.5; stroke-linecap: square"/>
   </g>
   <g id="line2d_2">
    <path d="M 287.626943 44.811364 
L 287.626943 112.834091 
" clip-path="url(#pa85078d605)" style="fill: none; stroke: #000000; stroke-width: 0.5; stroke-linecap: square"/>
   </g>
   <g id="line2d_3">
    <path d="M 360 44.811364 
L 360 112.834091 
" clip-path="url(#pa85078d605)" style="fill: none; stroke: #000000; stroke-width: 0.5; stroke-linecap: square"/>
   </g>
   <g id="patch_2">
    <path d="M 16.227979 105.834091 
Q 102.493723 105.834091 188.759468 105.834091 
L 188.759468 105.834091 
Q 192.960045 109.334091 197.160622 112.834091 
Q 192.960045 116.334091 188.759468 119.834091 
L 188.759468 119.834091 
Q 102.493723 119.834091 16.227979 119.834091 
L 16.227979 105.834091 
z
" clip-path="url(#pa85078d605)" style="fill: #007a3d; stroke: #000000; stroke-linecap: round"/>
   </g>
   <g id="patch_3">
    <path d="M 703.772021 119.834091 
Q 671.784137 119.834091 639.796253 119.834091 
L 639.796253 119.834091 
Q 635.597608 116.334091 631.398964 112.834091 
Q 635.597608 109.334091 639.796253 105.834091 
L 639.796253 105.834091 
Q 671.784137 105.834091 703.772021 105.834091 
L 703.772021 119.834091 
z
" clip-path="url(#pa85078d605)" style="fill: #9bffcd; stroke: #000000; stroke-linecap: round"/>
   </g>
   <g id="patch_4">
    <path d="M 595.212435 105.834091 
Q 609.107055 105.834091 623.001675 105.834091 
L 623.001675 105.834091 
Q 627.200319 109.334091 631.398964 112.834091 
Q 627.200319 116.334091 623.001675 119.834091 
L 623.001675 119.834091 
Q 609.107055 119.834091 595.212435 119.834091 
L 595.212435 105.834091 
z
" clip-path="url(#pa85078d605)" style="fill: #007a3d; stroke: #000000; stroke-linecap: round"/>
   </g>
   <g id="patch_5">
    <path d="M 305.720207 119.834091 
Q 291.825587 119.834091 277.930968 119.834091 
L 277.930968 119.834091 
Q 273.732323 116.334091 269.533679 112.834091 
Q 273.732323 109.334091 277.930968 105.834091 
L 277.930968 105.834091 
Q 291.825587 105.834091 305.720207 105.834091 
L 305.720207 119.834091 
z
" clip-path="url(#pa85078d605)" style="fill: #007a3d; stroke: #000000; stroke-linecap: round"/>
   </g>
   <g id="patch_6">
    <path d="M 341.906736 105.834091 
Q 355.801356 105.834091 369.695975 105.834091 
L 369.695975 105.834091 
Q 373.89462 109.334091 378.093264 112.834091 
Q 373.89462 116.334091 369.695975 119.834091 
L 369.695975 119.834091 
Q 355.801356 119.834091 341.906736 119.834091 
L 341.906736 105.834091 
z
" clip-path="url(#pa85078d605)" style="fill: #007a3d; stroke: #000000; stroke-linecap: round"/>
   </g>
   <g id="patch_7">
    <path d="M 414.279793 105.834091 
Q 428.174413 105.834091 442.069032 105.834091 
L 442.069032 105.834091 
Q 446.267677 109.334091 450.466321 112.834091 
Q 446.267677 116.334091 442.069032 119.834091 
L 442.069032 119.834091 
Q 428.174413 119.834091 414.279793 119.834091 
L 414.279793 105.834091 
z
" clip-path="url(#pa85078d605)" style="fill: #9bffcd; stroke: #000000; stroke-linecap: round"/>
   </g>
   <g id="patch_8">
    <path d="M 369.046632 92.427273 
L 378.093264 78.822727 
L 369.046632 65.218182 
L 387.139896 65.218182 
L 387.139896 92.427273 
z
" clip-path="url(#pa85078d605)" style="fill: #444444; stroke: #000000; stroke-linejoin: miter"/>
   </g>
   <g id="patch_9">
    <path d="M 459.512953 126.438636 
L 477.606218 126.438636 
L 468.559585 112.834091 
L 477.606218 99.229545 
L 459.512953 99.229545 
z
" clip-path="url(#pa85078d605)" style="fill: #dddddd; stroke: #000000; stroke-linejoin: miter"/>
   </g>
   <g id="patch_10">
    <path d="M 233.34715 119.636364 
C 235.746345 119.636364 238.047598 118.919633 239.744085 117.644024 
C 241.440572 116.368415 242.393782 114.638075 242.393782 112.834091 
C 242.393782 111.030107 241.440572 109.299767 239.744085 108.024158 
C 238.047598 106.748549 235.746345 106.031818 233.34715 106.031818 
C 230.947955 106.031818 228.646702 106.748549 226.950215 108.024158 
C 225.253728 109.299767 224.300518 111.030107 224.300518 112.834091 
C 224.300518 114.638075 225.253728 116.368415 226.950215 117.644024 
C 228.646702 118.919633 230.947955 119.636364 233.34715 119.636364 
z
" clip-path="url(#pa85078d605)" style="fill: #fcfcf2; stroke: #000000; stroke-linejoin: miter"/>
   </g>
   <g id="patch_11">
    <path d="M 559.025907 119.636364 
C 561.425102 119.636364 563.726355 118.919633 565.422842 117.644024 
C 567.119329 116.368415 568.072539 114.638075 568.072539 112.834091 
C 568.072539 111.030107 567.119329 109.299767 565.422842 108.024158 
C 563.726355 106.748549 561.425102 106.031818 559.025907 106.031818 
C 556.626712 106.031818 554.325459 106.748549 552.628972 108.024158 
C 550.932485 109.299767 549.979275 111.030107 549.979275 112.834091 
C 549.979275 114.638075 550.932485 116.368415 552.628972 117.644024 
C 554.325459 118.919633 556.626712 119.636364 559.025907 119.636364 
z
" clip-path="url(#pa85078d605)" style="fill: #fcfcf2; stroke: #000000; stroke-linejoin: miter"/>
   </g>
   <g id="patch_12">
    <path d="M 278.580311 65.218182 
L 296.673575 65.218182 
L 287.626943 78.822727 
z
" clip-path="url(#pa85078d605)" style="fill: #ff0000; stroke: #000000; stroke-linejoin: miter"/>
   </g>
   <g id="patch_13">
    <path d="M 314.766839 99.229545 
L 332.860104 99.229545 
L 323.813472 112.834091 
z
" clip-path="url(#pa85078d605)" style="fill: #ff0000; stroke: #000000; stroke-linejoin: miter"/>
   </g>
   <g id="patch_14">
    <path d="M 350.953368 92.427273 
L 369.046632 92.427273 
L 360 78.822727 
z
" clip-path="url(#pa85078d605)" style="fill: #ff0000; stroke: #000000; stroke-linejoin: miter"/>
   </g>
   <g id="patch_15">
    <path d="M 486.65285 99.229545 
L 504.746114 99.229545 
L 495.699482 112.834091 
z
" clip-path="url(#pa85078d605)" style="fill: #ff0000; stroke: #000000; stroke-linejoin: miter"/>
   </g>
   <g id="patch_16">
    <path d="M 504.746114 126.438636 
L 522.839378 126.438636 
L 513.792746 112.834091 
z
" clip-path="url(#pa85078d605)" style="fill: #ff0000; stroke: #000000; stroke-linejoin: miter"/>
   </g>
   <g id="patch_17">
    <path d="M 540.932642 119.834091 
Q 536.084655 119.834091 531.236667 119.834091 
L 531.236667 119.834091 
Q 527.038023 116.334091 522.839378 112.834091 
Q 527.038023 109.334091 531.236667 105.834091 
L 531.236667 105.834091 
Q 536.084655 105.834091 540.932642 105.834091 
L 540.932642 119.834091 
z
" clip-path="url(#pa85078d605)" style="fill: #007a3d; stroke: #000000; stroke-linecap: round"/>
   </g>
   <g id="patch_18">
    <path d="M 586.165803 92.427273 
L 604.259067 92.427273 
L 595.212435 78.822727 
z
" clip-path="url(#pa85078d605)" style="stroke: #000000; stroke-linejoin: miter"/>
   </g>
   <g id="patch_19">
    <path d="M 658.53886 92.427273 
L 676.632124 92.427273 
L 667.585492 78.822727 
z
" clip-path="url(#pa85078d605)" style="fill: #ffffff; stroke: #000000; stroke-linejoin: miter"/>
   </g>
   <g id="patch_20">
    <path d="M 11.704663 85.625 
C 15.303456 85.625 18.755335 84.90827 21.300066 83.63266 
C 23.844796 82.357051 25.274611 80.626711 25.274611 78.822727 
C 25.274611 77.018743 23.844796 75.288403 21.300066 74.012794 
C 18.755335 72.737185 15.303456 72.020455 11.704663 72.020455 
C 8.105871 72.020455 4.653991 72.737185 2.109261 74.012794 
C -0.43547 75.288403 -1.865285 77.018743 -1.865285 78.822727 
C -1.865285 80.626711 -0.43547 82.357051 2.109261 83.63266 
C 4.653991 84.90827 8.105871 85.625 11.704663 85.625 
z
" clip-path="url(#pa85078d605)" style="fill: #ffff00; stroke: #000000; stroke-linejoin: miter"/>
   </g>
   <g id="matplotlib.axis_1">
    <g id="xtick_1">
     <g id="line2d_4">
      <defs>
       <path id="m52e9be4ca5" d="M 0 0 
L 0 3.5 
" style="stroke: #808080; stroke-width: 0.8"/>
      </defs>
      <g>
       <use xlink:href="#m52e9be4ca5" x="25.274611" y="130.52" style="fill: #808080; stroke: #808080; stroke-width: 0.8"/>
      </g>
     </g>
     <g id="text_1">
      <!-- 120 -->
      <g style="fill: #808080" transform="translate(15.730861 145.118438) scale(0.1 -0.1)">
       <defs>
        <path id="DejaVuSans-31" d="M 794 531 
L 1825 531 
L 1825 4091 
L 703 3866 
L 703 4441 
L 1819 4666 
L 2450 4666 
L 2450 531 
L 3481 531 
L 3481 0 
L 794 0 
L 794 531 
z
" transform="scale(0.015625)"/>
        <path id="DejaVuSans-32" d="M 1228 531 
L 3431 531 
L 3431 0 
L 469 0 
L 469 531 
Q 828 903 1448 1529 
Q 2069 2156 2228 2338 
Q 2531 2678 2651 2914 
Q 2772 3150 2772 3378 
Q 2772 3750 2511 3984 
Q 2250 4219 1831 4219 
Q 1534 4219 1204 4116 
Q 875 4013 500 3803 
L 500 4441 
Q 881 4594 1212 4672 
Q 1544 4750 1819 4750 
Q 2544 4750 2975 4387 
Q 3406 4025 3406 3419 
Q 3406 3131 3298 2873 
Q 3191 2616 2906 2266 
Q 2828 2175 2409 1742 
Q 1991 1309 1228 531 
z
" transform="scale(0.015625)"/>
        <path id="DejaVuSans-30" d="M 2034 4250 
Q 1547 4250 1301 3770 
Q 1056 3291 1056 2328 
Q 1056 1369 1301 889 
Q 1547 409 2034 409 
Q 2525 409 2770 889 
Q 3016 1369 3016 2328 
Q 3016 3291 2770 3770 
Q 2525 4250 2034 4250 
z
M 2034 4750 
Q 2819 4750 3233 4129 
Q 3647 3509 3647 2328 
Q 3647 1150 3233 529 
Q 2819 -91 2034 -91 
Q 1250 -91 836 529 
Q 422 1150 422 2328 
Q 422 3509 836 4129 
Q 1250 4750 2034 4750 
z
" transform="scale(0.015625)"/>
       </defs>
       <use xlink:href="#DejaVuSans-31"/>
       <use xlink:href="#DejaVuSans-32" x="63.623047"/>
       <use xlink:href="#DejaVuSans-30" x="127.246094"/>
      </g>
     </g>
    </g>
    <g id="xtick_2">
     <g id="line2d_5">
      <g>
       <use xlink:href="#m52e9be4ca5" x="97.647668" y="130.52" style="fill: #808080; stroke: #808080; stroke-width: 0.8"/>
      </g>
     </g>
     <g id="text_2">
      <!-- 124 -->
      <g style="fill: #808080" transform="translate(88.103918 145.118438) scale(0.1 -0.1)">
       <defs>
        <path id="DejaVuSans-34" d="M 2419 4116 
L 825 1625 
L 2419 1625 
L 2419 4116 
z
M 2253 4666 
L 3047 4666 
L 3047 1625 
L 3713 1625 
L 3713 1100 
L 3047 1100 
L 3047 0 
L 2419 0 
L 2419 1100 
L 313 1100 
L 313 1709 
L 2253 4666 
z
" transform="scale(0.015625)"/>
       </defs>
       <use xlink:href="#DejaVuSans-31"/>
       <use xlink:href="#DejaVuSans-32" x="63.623047"/>
       <use xlink:href="#DejaVuSans-34" x="127.246094"/>
      </g>
     </g>
    </g>
    <g id="xtick_3">
     <g id="line2d_6">
      <g>
       <use xlink:href="#m52e9be4ca5" x="170.020725" y="130.52" style="fill: #808080; stroke: #808080; stroke-width: 0.8"/>
      </g>
     </g>
     <g id="text_3">
      <!-- 128 -->
      <g style="fill: #808080" transform="translate(160.476975 145.118438) scale(0.1 -0.1)">
       <defs>
        <path id="DejaVuSans-38" d="M 2034 2216 
Q 1584 2216 1326 1975 
Q 1069 1734 1069 1313 
Q 1069 891 1326 650 
Q 1584 409 2034 409 
Q 2484 409 2743 651 
Q 3003 894 3003 1313 
Q 3003 1734 2745 1975 
Q 2488 2216 2034 2216 
z
M 1403 2484 
Q 997 2584 770 2862 
Q 544 3141 544 3541 
Q 544 4100 942 4425 
Q 1341 4750 2034 4750 
Q 2731 4750 3128 4425 
Q 3525 4100 3525 3541 
Q 3525 3141 3298 2862 
Q 3072 2584 2669 2484 
Q 3125 2378 3379 2068 
Q 3634 1759 3634 1313 
Q 3634 634 3220 271 
Q 2806 -91 2034 -91 
Q 1263 -91 848 271 
Q 434 634 434 1313 
Q 434 1759 690 2068 
Q 947 2378 1403 2484 
z
M 1172 3481 
Q 1172 3119 1398 2916 
Q 1625 2713 2034 2713 
Q 2441 2713 2670 2916 
Q 2900 3119 2900 3481 
Q 2900 3844 2670 4047 
Q 2441 4250 2034 4250 
Q 1625 4250 1398 4047 
Q 1172 3844 1172 3481 
z
" transform="scale(0.015625)"/>
       </defs>
       <use xlink:href="#DejaVuSans-31"/>
       <use xlink:href="#DejaVuSans-32" x="63.623047"/>
       <use xlink:href="#DejaVuSans-38" x="127.246094"/>
      </g>
     </g>
    </g>
    <g id="xtick_4">
     <g id="line2d_7">
      <g>
       <use xlink:href="#m52e9be4ca5" x="242.393782" y="130.52" style="fill: #808080; stroke: #808080; stroke-width: 0.8"/>
      </g>
     </g>
     <g id="text_4">
      <!-- 132 -->
      <g style="fill: #808080" transform="translate(232.850032 145.118438) scale(0.1 -0.1)">
       <defs>
        <path id="DejaVuSans-33" d="M 2597 2516 
Q 3050 2419 3304 2112 
Q 3559 1806 3559 1356 
Q 3559 666 3084 287 
Q 2609 -91 1734 -91 
Q 1441 -91 1130 -33 
Q 819 25 488 141 
L 488 750 
Q 750 597 1062 519 
Q 1375 441 1716 441 
Q 2309 441 2620 675 
Q 2931 909 2931 1356 
Q 2931 1769 2642 2001 
Q 2353 2234 1838 2234 
L 1294 2234 
L 1294 2753 
L 1863 2753 
Q 2328 2753 2575 2939 
Q 2822 3125 2822 3475 
Q 2822 3834 2567 4026 
Q 2313 4219 1838 4219 
Q 1578 4219 1281 4162 
Q 984 4106 628 3988 
L 628 4550 
Q 988 4650 1302 4700 
Q 1616 4750 1894 4750 
Q 2613 4750 3031 4423 
Q 3450 4097 3450 3541 
Q 3450 3153 3228 2886 
Q 3006 2619 2597 2516 
z
" transform="scale(0.015625)"/>
       </defs>
       <use xlink:href="#DejaVuSans-31"/>
       <use xlink:href="#DejaVuSans-33" x="63.623047"/>
       <use xlink:href="#DejaVuSans-32" x="127.246094"/>
      </g>
     </g>
    </g>
    <g id="xtick_5">
     <g id="line2d_8">
      <g>
       <use xlink:href="#m52e9be4ca5" x="314.766839" y="130.52" style="fill: #808080; stroke: #808080; stroke-width: 0.8"/>
      </g>
     </g>
     <g id="text_5">
      <!-- 136 -->
      <g style="fill: #808080" transform="translate(305.223089 145.118438) scale(0.1 -0.1)">
       <defs>
        <path id="DejaVuSans-36" d="M 2113 2584 
Q 1688 2584 1439 2293 
Q 1191 2003 1191 1497 
Q 1191 994 1439 701 
Q 1688 409 2113 409 
Q 2538 409 2786 701 
Q 3034 994 3034 1497 
Q 3034 2003 2786 2293 
Q 2538 2584 2113 2584 
z
M 3366 4563 
L 3366 3988 
Q 3128 4100 2886 4159 
Q 2644 4219 2406 4219 
Q 1781 4219 1451 3797 
Q 1122 3375 1075 2522 
Q 1259 2794 1537 2939 
Q 1816 3084 2150 3084 
Q 2853 3084 3261 2657 
Q 3669 2231 3669 1497 
Q 3669 778 3244 343 
Q 2819 -91 2113 -91 
Q 1303 -91 875 529 
Q 447 1150 447 2328 
Q 447 3434 972 4092 
Q 1497 4750 2381 4750 
Q 2619 4750 2861 4703 
Q 3103 4656 3366 4563 
z
" transform="scale(0.015625)"/>
       </defs>
       <use xlink:href="#DejaVuSans-31"/>
       <use xlink:href="#DejaVuSans-33" x="63.623047"/>
       <use xlink:href="#DejaVuSans-36" x="127.246094"/>
      </g>
     </g>
    </g>
    <g id="xtick_6">
     <g id="line2d_9">
      <g>
       <use xlink:href="#m52e9be4ca5" x="387.139896" y="130.52" style="fill: #808080; stroke: #808080; stroke-width: 0.8"/>
      </g>
     </g>
     <g id="text_6">
      <!-- 140 -->
      <g style="fill: #808080" transform="translate(377.596146 145.118438) scale(0.1 -0.1)">
       <use xlink:href="#DejaVuSans-31"/>
       <use xlink:href="#DejaVuSans-34" x="63.623047"/>
       <use xlink:href="#DejaVuSans-30" x="127.246094"/>
      </g>
     </g>
    </g>
    <g id="xtick_7">
     <g id="line2d_10">
      <g>
       <use xlink:href="#m52e9be4ca5" x="459.512953" y="130.52" style="fill: #808080; stroke: #808080; stroke-width: 0.8"/>
      </g>
     </g>
     <g id="text_7">
      <!-- 144 -->
      <g style="fill: #808080" transform="translate(449.969203 145.118438) scale(0.1 -0.1)">
       <use xlink:href="#DejaVuSans-31"/>
       <use xlink:href="#DejaVuSans-34" x="63.623047"/>
       <use xlink:href="#DejaVuSans-34" x="127.246094"/>
      </g>
     </g>
    </g>
    <g id="xtick_8">
     <g id="line2d_11">
      <g>
       <use xlink:href="#m52e9be4ca5" x="531.88601" y="130.52" style="fill: #808080; stroke: #808080; stroke-width: 0.8"/>
      </g>
     </g>
     <g id="text_8">
      <!-- 148 -->
      <g style="fill: #808080" transform="translate(522.34226 145.118438) scale(0.1 -0.1)">
       <use xlink:href="#DejaVuSans-31"/>
       <use xlink:href="#DejaVuSans-34" x="63.623047"/>
       <use xlink:href="#DejaVuSans-38" x="127.246094"/>
      </g>
     </g>
    </g>
    <g id="xtick_9">
     <g id="line2d_12">
      <g>
       <use xlink:href="#m52e9be4ca5" x="604.259067" y="130.52" style="fill: #808080; stroke: #808080; stroke-width: 0.8"/>
      </g>
     </g>
     <g id="text_9">
      <!-- 152 -->
      <g style="fill: #808080" transform="translate(594.715317 145.118438) scale(0.1 -0.1)">
       <defs>
        <path id="DejaVuSans-35" d="M 691 4666 
L 3169 4666 
L 3169 4134 
L 1269 4134 
L 1269 2991 
Q 1406 3038 1543 3061 
Q 1681 3084 1819 3084 
Q 2600 3084 3056 2656 
Q 3513 2228 3513 1497 
Q 3513 744 3044 326 
Q 2575 -91 1722 -91 
Q 1428 -91 1123 -41 
Q 819 9 494 109 
L 494 744 
Q 775 591 1075 516 
Q 1375 441 1709 441 
Q 2250 441 2565 725 
Q 2881 1009 2881 1497 
Q 2881 1984 2565 2268 
Q 2250 2553 1709 2553 
Q 1456 2553 1204 2497 
Q 953 2441 691 2322 
L 691 4666 
z
" transform="scale(0.015625)"/>
       </defs>
       <use xlink:href="#DejaVuSans-31"/>
       <use xlink:href="#DejaVuSans-35" x="63.623047"/>
       <use xlink:href="#DejaVuSans-32" x="127.246094"/>
      </g>
     </g>
    </g>
    <g id="xtick_10">
     <g id="line2d_13">
      <g>
       <use xlink:href="#m52e9be4ca5" x="676.632124" y="130.52" style="fill: #808080; stroke: #808080; stroke-width: 0.8"/>
      </g>
     </g>
     <g id="text_10">
      <!-- 156 -->
      <g style="fill: #808080" transform="translate(667.088374 145.118438) scale(0.1 -0.1)">
       <use xlink:href="#DejaVuSans-31"/>
       <use xlink:href="#DejaVuSans-35" x="63.623047"/>
       <use xlink:href="#DejaVuSans-36" x="127.246094"/>
      </g>
     </g>
    </g>
   </g>
   <g id="text_11">
    <g id="patch_21">
     <path d="M 284.371631 53.434332 
L 290.882256 53.434332 
Q 294.182256 53.434332 294.182256 50.134332 
L 294.182256 39.488395 
Q 294.182256 36.188395 290.882256 36.188395 
L 284.371631 36.188395 
Q 281.071631 36.188395 281.071631 39.488395 
L 281.071631 50.134332 
Q 281.071631 53.434332 284.371631 53.434332 
z
" style="fill: #e5fff2; stroke: #808080; stroke-linejoin: miter"/>
    </g>
    <!-- x -->
    <g transform="translate(284.371631 47.846676) scale(0.11 -0.11)">
     <defs>
      <path id="DejaVuSans-78" d="M 3513 3500 
L 2247 1797 
L 3578 0 
L 2900 0 
L 1881 1375 
L 863 0 
L 184 0 
L 1544 1831 
L 300 3500 
L 978 3500 
L 1906 2253 
L 2834 3500 
L 3513 3500 
z
" transform="scale(0.015625)"/>
     </defs>
     <use xlink:href="#DejaVuSans-78"/>
    </g>
   </g>
   <g id="text_12">
    <g id="patch_22">
     <path d="M 356.744688 53.434332 
L 363.255313 53.434332 
Q 366.555313 53.434332 366.555313 50.134332 
L 366.555313 39.488395 
Q 366.555313 36.188395 363.255313 36.188395 
L 356.744688 36.188395 
Q 353.444688 36.188395 353.444688 39.488395 
L 353.444688 50.134332 
Q 353.444688 53.434332 356.744688 53.434332 
z
" style="fill: #e5fff2; stroke: #808080; stroke-linejoin: miter"/>
    </g>
    <!-- y -->
    <g transform="translate(356.744688 47.846676) scale(0.11 -0.11)">
     <defs>
      <path id="DejaVuSans-79" d="M 2059 -325 
Q 1816 -950 1584 -1140 
Q 1353 -1331 966 -1331 
L 506 -1331 
L 506 -850 
L 844 -850 
Q 1081 -850 1212 -737 
Q 1344 -625 1503 -206 
L 1606 56 
L 191 3500 
L 800 3500 
L 1894 763 
L 2988 3500 
L 3597 3500 
L 2059 -325 
z
" transform="scale(0.015625)"/>
     </defs>
     <use xlink:href="#DejaVuSans-79"/>
    </g>
   </g>
  </g>
 </g>
 <defs>
  <clipPath id="pa85078d605">
   <rect x="10.8" y="10.8" width="698.4" height="119.72"/>
  </clipPath>
 </defs>
</svg>
